
<svg xmlns="http://www.w3.org/2000/svg" viewBox="0 0 55 55">
	<style type="text/css">
		.st0{fill-rule:evenodd;clip-rule:evenodd;fill:#FF9933;}
		.st1{fill-rule:evenodd;clip-rule:evenodd;fill:#FCBD7E;}
		.st2{fill-rule:evenodd;clip-rule:evenodd;fill:#CC6633;}
		.st3{fill-rule:evenodd;clip-rule:evenodd;fill:#B2B2B2;}
		.st4{fill-rule:evenodd;clip-rule:evenodd;fill:#999999;}
		.st5{fill-rule:evenodd;clip-rule:evenodd;fill:#666666;}
		.st6{fill-rule:evenodd;clip-rule:evenodd;fill:#FF00FF;}
		.st7{fill-rule:evenodd;clip-rule:evenodd;}
		.st8{fill-rule:evenodd;clip-rule:evenodd;fill:#4C4C4C;stroke:#231F20;stroke-width:0.216;stroke-miterlimit:22.9256;}
		.st9{fill-rule:evenodd;clip-rule:evenodd;fill:#00A651;}
		.st10{fill-rule:evenodd;clip-rule:evenodd;fill:#D2E288;}
		.st11{fill-rule:evenodd;clip-rule:evenodd;fill:#E5E5E5;}
		.st12{fill-rule:evenodd;clip-rule:evenodd;fill:#CCCCCC;}
		.st13{fill-rule:evenodd;clip-rule:evenodd;fill:#FFFCD5;}
	</style>
	<path class="st0" d="M40.1,32.2c1.9,0.9,4.6,6.8,6.2,8c0.9,0.6,2.4-0.3,3.1,0.5c1.9,1.9,4.1,7.3,2.8,9.5c-1.4,2.2-3.9,0.2-6.5-0.7 c-1-0.4-1.7-3.9-2.3-4.8c-0.6-1-3.7-2.7-4.5-3.6c-1.5-1.7-1-2.5-1-4.7C37.9,34.8,38.7,31.5,40.1,32.2z"/>
	<path class="st1" d="M40.6,33.9c1.2,0.5,5.2,6.8,6.3,7.6c0.5,0.4,2.4-0.3,2.8,0.2c1.2,1.2,2.6,4.7,1.8,6.1c-0.9,1.4-1.7-0.1-3.3-0.7 c-0.7-0.3-1.1-2.5-1.5-3.1c-0.4-0.6-6.3-5.1-6.8-5.6c-1-1.1-0.8-0.3-0.8-1.7C39.2,35.6,39.7,33.5,40.6,33.9z"/>
	<path class="st2" d="M41.1,41.6c0.8,0.8,1.7,1.5,2.3,2.5c0.9,1.4,1.3,3.1,2,4.7c0.2,0.4,3.4,1.8,4.7,2.2c0.5,0.1,1.1-0.2,1.3-0.5 c-0.6,0.2-1.1,0.3-1.5,0.2c-1.2-0.4-2.4-0.8-3.4-2.3c-1-1.5-0.9-2.9-2-4.3c-1-1.4-2.6-2.3-3.9-3.5C41,40.9,41.1,41.3,41.1,41.6z"/>
	<path class="st3" d="M39.4,19.3c1.1,2.2,2.2,4.4,3.4,6.6c0.9,1.7,0.9,3.1,0.6,4.5c-0.8,4.2-1.4,7-2.3,11.2c-0.5,1.4-1.6,2.1-3.6,1.9 c-1-0.1-4.6-0.5-5.6-0.6c-2.1-0.2-2.8-0.5-3.6-1c-2.4-1.4-3.1-2.2-5.3-3.9C27.8,31.8,34.5,25.7,39.4,19.3z"/>
	<path class="st4" d="M35.6,19.2l2.4-0.4c1.3-0.2,1.7,0.3,1.4,2l-3.1,16.9c-0.4,1.9-2.1,2.8-3.9,2.5l-8.8-1.3l2-1L35.6,19.2z"/>
	<path class="st5" d="M34.2,21.2l2-0.3c1.1-0.2,1.4,0.3,1.1,1.6l-2.5,13.7c-0.3,1.5-1.7,2.3-3.2,2.1l-7.2-1.1l1.6-0.9L34.2,21.2z"/>
	<path class="st6" d="M16,5.8c0.1,0,0.3-0.1,0.5-0.1c0.2,0,0.3-0.1,0.5-0.2c0.1,0,0.3-0.1,0.4-0.1c0.2-0.1,0.5-0.1,0.7-0.2 c0.2-0.1,0.4-0.1,0.5-0.2c0.2-0.1,0.5-0.1,0.7-0.2c0.1,0,0.3-0.1,0.5-0.1c0.2-0.1,0.3-0.1,0.5-0.2c0.2-0.1,0.4-0.1,0.6-0.2 c0.2-0.1,0.4-0.1,0.5-0.2C21.7,4,21.8,4,22,3.9c0.2-0.1,0.4-0.1,0.7-0.2c0.2,0,0.3-0.1,0.5-0.1c0.3-0.1,0.5-0.1,0.8-0.2 c0.2,0,0.3-0.1,0.5-0.2c0.1,0,0.3-0.1,0.4-0.1c0.1,0,0.3-0.1,0.4-0.1c0.3-0.1,0.6-0.2,1-0.3c0.3-0.1,0.6-0.2,0.9-0.3 c0,0.1,0,0.2-0.1,0.3c0,0.1,0,0.2-0.1,0.3C27,3.1,27,3.2,27,3.4c0,0.1-0.1,0.2-0.1,0.4c0,0.1-0.1,0.3-0.1,0.4c0,0.1-0.1,0.3-0.1,0.4 c0,0.2-0.1,0.3-0.1,0.5c0,0.2-0.1,0.4-0.1,0.6c0,0.2-0.1,0.3-0.1,0.5c0,0.2-0.1,0.3-0.1,0.5c0,0.2-0.1,0.4-0.1,0.6 c0,0.2-0.1,0.3-0.1,0.5c-0.1,0.2-0.1,0.5-0.2,0.7c-0.1,0.3-0.1,0.5-0.2,0.8c0,0.2-0.1,0.4-0.1,0.6c-0.1,0.2-0.1,0.5-0.2,0.7 c-0.1,0.3-0.1,0.5-0.2,0.8c-0.1,0.3-0.1,0.5-0.2,0.8c-0.1,0.3-0.2,0.7-0.3,1c-0.1,0.4-0.2,0.8-0.3,1.1c-0.1,0.3-0.1,0.5-0.2,0.8 c0,0.2-0.1,0.4-0.1,0.6c-0.1,0.2-0.1,0.4-0.2,0.6s-0.1,0.4-0.2,0.6c0,0.2-0.1,0.4-0.1,0.6c-0.1,0.3-0.1,0.5-0.2,0.8 c-0.1,0.2-0.1,0.5-0.2,0.7c-0.1,0.3-0.1,0.5-0.2,0.8c-0.1,0.2-0.1,0.5-0.2,0.7c-0.1,0.2-0.1,0.4-0.2,0.6c0,0.2-0.1,0.4-0.1,0.6 c-0.1,0.3-0.2,0.7-0.2,1c-0.1,0.3-0.1,0.5-0.2,0.8c-0.1,0.3-0.2,0.7-0.2,1c-0.1,0.2-0.1,0.4-0.2,0.6c0,0.2-0.1,0.4-0.1,0.5 c0,0.2-0.1,0.3-0.1,0.5c0,0.1-0.1,0.3-0.1,0.4c0,0.2-0.1,0.3-0.1,0.5c0,0.2-0.1,0.4-0.1,0.6c0,0.2-0.1,0.3-0.1,0.5 c0,0.2-0.1,0.4-0.1,0.5c0,0.1-0.1,0.3-0.1,0.4c0,0.2-0.1,0.3-0.1,0.5c0,0.2-0.1,0.3-0.1,0.5c0,0.2-0.1,0.4-0.1,0.5 c0,0.2-0.1,0.4-0.1,0.6c0,0.2-0.1,0.3-0.1,0.5c-0.1,0.2-0.1,0.4-0.1,0.6c0,0.2-0.1,0.4-0.1,0.6c-0.1,0.3-0.1,0.5-0.2,0.8 c-0.1,0.2-0.1,0.4-0.2,0.7c-0.1,0.2-0.1,0.4-0.2,0.6c0,0.2-0.1,0.3-0.1,0.5c0,0.2-0.1,0.4-0.1,0.5c0,0.2-0.1,0.4-0.1,0.6 c0,0.2-0.1,0.4-0.1,0.6c-0.1,0.2-0.1,0.5-0.2,0.7c0,0.2-0.1,0.4-0.1,0.6c-0.1-0.1-0.3-0.2-0.4-0.3c-0.2-0.1-0.4-0.3-0.6-0.4 c-0.2-0.1-0.5-0.3-0.7-0.4c-0.2-0.1-0.3-0.2-0.5-0.3c-0.1,0-0.1-0.1-0.2-0.1c-0.1-0.1-0.2-0.1-0.3-0.2c-0.1-0.1-0.3-0.2-0.4-0.3 c-0.1-0.1-0.2-0.1-0.3-0.2c-0.1-0.1-0.2-0.1-0.3-0.2c-0.1-0.1-0.3-0.2-0.4-0.2c-0.1-0.1-0.2-0.1-0.3-0.2c-0.1-0.1-0.2-0.1-0.3-0.2 c-0.1-0.1-0.3-0.2-0.4-0.3c-0.1-0.1-0.3-0.2-0.4-0.3c-0.1-0.1-0.2-0.1-0.3-0.2c-0.1,0-0.2-0.1-0.2-0.1c-0.1,0-0.2-0.1-0.2-0.1 c-0.1-0.1-0.2-0.1-0.3-0.2c-0.1,0-0.1-0.1-0.2-0.1c-0.1-0.1-0.2-0.1-0.3-0.2c-0.1,0-0.1-0.1-0.2-0.1c-0.1,0-0.1-0.1-0.2-0.1 c-0.1,0-0.1-0.1-0.2-0.1c-0.1-0.1-0.3-0.2-0.4-0.2c-0.1-0.1-0.3-0.2-0.4-0.3s-0.3-0.2-0.4-0.3C9.2,33,9.1,33,9,32.9 c-0.1-0.1-0.3-0.2-0.4-0.2c-0.1-0.1-0.2-0.1-0.4-0.2c-0.1-0.1-0.2-0.1-0.3-0.2c-0.1-0.1-0.2-0.1-0.3-0.2c-0.1-0.1-0.2-0.1-0.3-0.2 c-0.1-0.1-0.3-0.2-0.4-0.3c-0.1-0.1-0.3-0.2-0.4-0.3c-0.1-0.1-0.2-0.1-0.3-0.2c-0.1-0.1-0.3-0.2-0.4-0.3c-0.2-0.1-0.4-0.2-0.5-0.3 c-0.1-0.1-0.3-0.2-0.4-0.2c-0.1-0.1-0.2-0.1-0.3-0.2C4.3,30,4.1,29.9,4,29.8c-0.1-0.1-0.2-0.1-0.4-0.2c-0.1-0.1-0.2-0.1-0.3-0.2 c-0.1-0.1-0.2-0.1-0.4-0.2C2.8,29,2.7,29,2.5,28.9c0.1-0.2,0.2-0.3,0.3-0.5c0.1-0.2,0.2-0.3,0.3-0.5c0.1-0.1,0.2-0.3,0.3-0.4 c0.1-0.1,0.2-0.3,0.2-0.4c0.1-0.2,0.2-0.3,0.3-0.5C4,26.4,4.1,26.2,4.2,26c0.1-0.1,0.2-0.3,0.3-0.4c0.1-0.1,0.1-0.3,0.2-0.4 c0.1-0.2,0.2-0.3,0.3-0.5c0.1-0.1,0.1-0.3,0.2-0.4s0.2-0.3,0.2-0.4c0.1-0.1,0.1-0.2,0.2-0.4c0.1-0.1,0.2-0.3,0.2-0.4 C5.9,23,6,22.9,6.1,22.8c0.1-0.1,0.1-0.2,0.2-0.3c0.1-0.1,0.1-0.2,0.2-0.3c0.1-0.2,0.2-0.3,0.3-0.5c0.1-0.1,0.2-0.3,0.3-0.4 c0.1-0.1,0.1-0.2,0.2-0.3c0.1-0.1,0.1-0.2,0.2-0.4c0.1-0.1,0.1-0.3,0.2-0.4c0.1-0.2,0.2-0.3,0.3-0.5c0.1-0.2,0.2-0.3,0.3-0.5 c0.1-0.1,0.2-0.3,0.2-0.4c0.1-0.1,0.1-0.3,0.2-0.4c0.1-0.1,0.1-0.2,0.2-0.3c0.1-0.2,0.2-0.4,0.4-0.6c0.1-0.2,0.2-0.3,0.3-0.5 c0.1-0.1,0.2-0.3,0.3-0.5C9.9,16.3,10,16.1,10,16c0.1-0.1,0.2-0.3,0.3-0.4c0.1-0.2,0.2-0.3,0.3-0.5c0.1-0.2,0.2-0.3,0.3-0.5 c0.1-0.1,0.2-0.3,0.2-0.4c0.1-0.1,0.2-0.3,0.3-0.4c0.1-0.1,0.1-0.2,0.2-0.3c0.1-0.1,0.1-0.2,0.2-0.3c0.1-0.2,0.2-0.3,0.3-0.5 c0.1-0.2,0.2-0.4,0.4-0.6c0.1-0.2,0.2-0.4,0.3-0.6c0.1-0.2,0.2-0.4,0.4-0.6c0.1-0.1,0.1-0.3,0.2-0.4c0.1-0.2,0.3-0.4,0.4-0.6 c0.1-0.1,0.1-0.3,0.2-0.4c0-0.1,0.1-0.2,0.1-0.2c0.1-0.1,0.2-0.3,0.3-0.4c0.1-0.2,0.2-0.4,0.3-0.5c0.1-0.1,0.2-0.3,0.3-0.4 C14.9,7.7,15,7.5,15,7.4c0.1-0.1,0.1-0.2,0.2-0.4c0-0.1,0.1-0.1,0.1-0.2c0-0.1,0.1-0.1,0.1-0.2c0-0.1,0.1-0.1,0.1-0.2 c0.1-0.1,0.1-0.2,0.2-0.3c0-0.1,0.1-0.1,0.1-0.2C15.9,6,16,5.9,16,5.8z"/>
	<path class="st7" d="M27.2,2.4c2.6,6.8,5.5,13.1,9.7,18.6c0.2,0.2,0.2,0.7,0.1,1.4l-2.5,12.9c-0.2,1.2-0.4,2.7-2.2,2.6 c-4.5-0.3-9.2,0.2-13.8,1L27.2,2.4z"/>
	<path class="st8" d="M24.3,33l5.5,3.3L23,33.1L24.3,33L24.3,33z M23.2,31.6l9.5,5.2l-11.9-8.2L23.2,31.6L23.2,31.6z M23.7,29 l7.1,4.5L23.3,28L23.7,29L23.7,29z M24.9,27.5h-0.1l-1.1-1.7l8.4,6.6L24.9,27.5L24.9,27.5z M24,24.6l-0.5-1.4l10.2,8.2L24,24.6 L24,24.6z M25.6,23.6l-0.1-1.2l7.9,6.7L25.6,23.6L25.6,23.6z M26.1,20.5l7.6,6.2l-7.5-7.1L26.1,20.5L26.1,20.5z M27.4,18.7l5.2,4.8 l-5.7-6L27.4,18.7L27.4,18.7z M28.5,16.8l6.1,6.2l-6.9-8.3L28.5,16.8L28.5,16.8z M27.3,11.8l-0.4-1.3l6.8,9L27.3,11.8L27.3,11.8z  M29,9l6,10.3L28.3,9L29,9z"/>
	<path class="st9" d="M27.3,1.1c5,0,7.4,13.2,1.4,10.1c-2.7-1.4,4.4,8.1,0.4,6.8c-1.1-0.4-0.2,1.2-0.5,2.3c-0.3,0.8-1.3-0.2-1.6,1.4 c-0.2,1.2,2.2,1.5,2.9,2.5c0.7,1-0.1,2.3-0.8,2.3c-1.5,0-0.6-1.9-3.2-1.2c-1.4,0.4-1.3,1.8,0.8,1.8c2.3,0,2.9,2.4,1.4,2.4 c-1,0-0.9-1-1.1-1.2c-0.4-0.3-1.2-0.5-1.7,0.9c-0.5,1.5,0.4,1.5,1.2,2c1,0.6,2,1.5,1.2,2.3c-1.3,1.2-2.2-1.6-2.8,0 c-1.5,3.5,2.6,3.2,1,4.5c-2.7,2.3,0.8,6.5-1.8,6.7c-2.3,0.2-0.4-4.3-1-4.7c-4.1-1.9,1.2,14.1-2.8,14.1c-3.1,0-0.5-7.3-0.5-9.3 c0-5-0.4-5.7-2.2-4.9c-1.3,0.5,0.4,4.1-1.7,3.8c-2.1-0.3-0.9-3.7-0.9-5.4c0-0.3-0.2-1.1-0.4-0.8c-0.9,0.9,0.2,2.5-0.7,2.4 c-0.8-0.1,1.1-1.8-1.3-3.5c-3-2.1-9.2-4.5-10.1-7.2c-0.4-1.1,0-2.5,1-4.5c2.3-4.7,9.2-18.3,14.2-20.7C18.8,3.2,23.9,1.1,27.3,1.1z" />
	<path class="st10" d="M27.2,24.6c0,0.1,0.7,0.7,0.8,0.8c0.3,0.3,0.5,1,1.2,0.8c0.5-0.2,0.9-1.2,0.5-1.3c-0.3-0.1-0.6,0.1-0.9,0.1 c-0.4,0-1.1-0.5-1.6-0.7C26.8,24.2,27.2,24.6,27.2,24.6L27.2,24.6z M4.2,24.7c1.7-3.4,8.9-18.3,13.1-20.2c1.4-0.6,14-5.6,12.6,2.9 c-0.2,1.2-4.1-0.1-4.1,4.4c0,2.5,3.2,2.2,0.1,3.8c-2,1.1,1.7,5.7-2.8,6c-3.4,0.3,0.4,4.3,0.2,5.7c0,0-0.5,0.5-1.6,0.4 c-2.7-0.3,0.9,2.1,0,4.1c-0.3,0.7-1.7,1.2-0.7,2.2c2,1.8,3.8,4.7-0.4,3.5c-2.3-0.7-4.1,2.2-3.8-1.6C17.2,31.9,0.5,32,4.2,24.7 L4.2,24.7z M15.5,39c-0.1,0.9-0.4,2.3-0.1,3.1c0.1,0.4,0.5,0.8,0.6,0.2c0.2-0.7-0.5-1.4-0.3-2.2c0.1-0.3,0.1-0.8,0.1-1.1 C15.8,38.9,15.5,38.5,15.5,39L15.5,39z M20,46.7c0,0.7-0.4,1.3-0.5,1.8c-0.1,1-0.2,2.4-0.2,3.5c0,0.7,0.8,1.3,1.2,0.5 c0.2-0.5,0-1.2-0.2-1.6c-0.2-0.8-0.2-2-0.2-2.9c0-0.4,0.1-0.7,0.1-1C20.2,46.2,19.9,46.6,20,46.7L20,46.7z M23.4,41.2 c-0.1,0.1-0.2,0.9-0.2,1.1c0,0.5-0.1,0.9,0,1.4c0.1,0.3,0.6,0.6,0.9,0.4c0.2-0.1,0-0.5-0.1-0.7c-0.2-0.3-0.5-0.9-0.5-1.2 c0-0.4,0.1-0.8,0.1-1.1C23.7,40.9,23.4,41.2,23.4,41.2L23.4,41.2z M24.8,36.2c0-0.1-0.3-0.1-0.2,0.1c0.2,0.2,0.3,0.5,0.6,0.7 c0.2,0.1,0.3,0.5,0.5,0.6c0.1,0,0.3,0,0.3-0.1c0-0.3-0.3-0.5-0.6-0.7C25.1,36.7,24.9,36.4,24.8,36.2L24.8,36.2z M26.8,31.6 c0,0-0.2-0.1-0.1,0c0.1,0.1,0,0.2,0.1,0.3c0.1,0.2,0.5,0.5,0.5,0.8c0,0.3-0.4,0.3-0.5,0.5c-0.3,0.3,0.2,0.4,0.5,0.3 c0.3-0.2,0.6-0.7,0.4-1c-0.1-0.3-0.4-0.3-0.6-0.5C27.1,31.8,26.9,31.6,26.8,31.6L26.8,31.6z M28.3,27.8c-0.1-0.2-0.1,0.1-0.1,0.2 c0.1,0.2,0.1,0.3,0.1,0.6c0,0.1-0.4,0-0.5,0.1c-0.1,0.1-0.2,0.6-0.1,0.6c0.2,0,0.7,0.1,0.9-0.3C28.8,28.6,28.4,28,28.3,27.8 L28.3,27.8z M31.5,10.9c0.5-0.6-0.6-0.8-1.2-0.2c-0.3,0.4-2.7-0.5-2.4-0.2C28.2,10.8,30.7,12,31.5,10.9L31.5,10.9z M28.4,17.7 c0.5-0.1,1.2,0.5,1.7,0.2c0.2-0.1,0.2-0.4,0-0.4c-0.3-0.2-0.2,0.2-1.1,0.1C28.6,17.5,28,17.8,28.4,17.7L28.4,17.7z M27.6,20.6 c0.5,0,0.6,0,0.8-0.4c0.1-0.1,0.1-0.5,0.1-0.6c0-0.1-0.3,0.1-0.4,0.2c-0.3,0.3-0.6,0.4-0.9,0.6C26.8,20.9,27.5,20.6,27.6,20.6z"/>
	<path class="st11" d="M41.1,24.2l1.2,1.8c0.5,0.8,0.9,1.9,0.8,2.7l-2.3,11.5c-0.2,0.8-1.1,1.2-1.6,0.4l-1-1.5 c-0.5-0.8-0.8-1.9-0.7-2.7l2.1-11.8C39.6,23.8,40.6,23.4,41.1,24.2z"/>
	<path class="st12" d="M39.6,41.1c-0.2,0-0.4-0.2-0.5-0.4l-1-1.5c-0.5-0.8-0.8-1.9-0.7-2.7l2.1-11.8c0.1-0.4,0.3-0.7,0.6-0.8 c0.2,0,0.4,0.2,0.5,0.4l1.2,1.8c0.5,0.8,0.9,1.9,0.8,2.7l-2.3,11.5C40.2,40.7,39.9,41,39.6,41.1z"/>
	<path class="st13" d="M25.7,4.5c-10.7-3.2-10.7,6.4-15,13c-2.4,3.7-7.3,7.6-4.3,9.2c2.4,1.3,4.7,0.4,7.3,2.7 c2.3,1.9,2.1,3.3,3.3,0.5c2.1-4.6-2-8.7,1-14.3c1.2-2.2,2.9-3.5,4.9-4.8C24,10.1,28.8,5.4,25.7,4.5z"/>
</svg>
