<svg xmlns="http://www.w3.org/2000/svg" width="0" height="0">

	<svg id="icon-undo" viewBox="0 0 13 13">
		<path fill="#333" d="M6.5,1.9C5,1.9,3.6,2.5,2.6,3.5L1,1.9V6h4.1L3.6,4.5c0.7-0.7,1.8-1.2,2.9-1.2c2.3,0,4.1,1.8,4.1,4.1c0,1.2-0.5,2.3-1.4,3.1
			l0.9,1c1.1-1,1.9-2.5,1.9-4.1C12,4.3,9.5,1.9,6.5,1.9z"/>
	</svg>

	<svg id="icon-redo" viewBox="0 0 13 13">
		<path fill="#333" d="M1,7.4c0,1.6,0.7,3.1,1.8,4.1l0.9-1C2.9,9.7,2.4,8.6,2.4,7.4c0-2.3,1.8-4.1,4.1-4.1c1.1,0,2.2,0.5,2.9,1.2L7.9,6H12V1.9
			l-1.6,1.6c-1-1-2.4-1.6-3.9-1.6C3.5,1.9,1,4.4,1,7.4z"/>
	</svg>

	<svg id="icon-format" viewBox="0 0 13 13">
		<style type="text/css">
			.st0{fill:#333;}
		</style>
		<path class="st0" d="M5.8,8.9C6.7,9.3,7.1,10,8.2,8.9c-1-1-4.1-4.1-4.1-4.1c-0.8,0.8-0.6,1.4,0,2.3C4.7,7.9,3,8.8,2.7,9 C2.3,9.2,1,10,1,10.8C1,11.4,1.7,12,2.2,12c0.7-0.1,1.4-1,1.8-1.7C4.5,9.6,5.1,8.5,5.8,8.9z M1.9,11.1c-0.2-0.2-0.2-0.4,0-0.6 c0.2-0.2,0.4-0.2,0.6,0c0.2,0.2,0.2,0.4,0,0.6C2.3,11.3,2.1,11.3,1.9,11.1z"/>
		<path class="st0" d="M4.8,4c0.1-0.1,2.5-2.7,2.6-2.9C7.5,1,7.9,0.9,8.1,1.1c0.2,0.1,0.4,0.3,0.5,0.4s0,0.2,0,0.3 C8.5,1.8,6.8,3.9,6.8,3.9S9,2.2,9.1,2.2c0.1-0.1,0.4-0.1,0.5,0c0.1,0.1,2.3,2.8,2.3,3c0.1,0.2,0,0.6-0.2,0.7C11.6,6.1,9.1,8.2,9,8.3 c-0.1,0.1-0.3,0.2-0.5,0C8.3,8.1,4.9,4.7,4.8,4.6C4.7,4.4,4.7,4.2,4.8,4z"/>
	</svg>

</svg>